# xmcd
#
# Track frame offsets: 
#        195
#        19945
#        39645
#        74262
#        96707
#        115845
#        136742
#        175680
#
# Disc length: 2432 seconds
#
# Revision: 1
# Processed by: cddbd v1.5.2PL0 Copyright (c) Steve Scherf et al.
# Submitted via: ExactAudioCopy v0.99pb5
#
DISCID=6b097e08
DTITLE=Billy Jenkins - Entertainment USA
DYEAR=1994
DGENRE=Jazz
TTITLE0=Ronald Reagan
TTITLE1=Ray Charles
TTITLE2=Jonny Cash
TTITLE3=Doris Day
TTITLE4=Don King
TTITLE5=Oliver North, Twisted
TTITLE6=Charles Manson
TTITLE7=Elvis Presley
EXTD=YEAR: 1994
EXTT0=
EXTT1=
EXTT2=
EXTT3=
EXTT4=
EXTT5=
EXTT6=
EXTT7=
PLAYORDER=
